<svg width="77" height="77" viewBox="0 0 77 77" fill="none" xmlns="http://www.w3.org/2000/svg">
<rect x="0.0925293" y="-0.00610352" width="76.5751" height="76.5751" rx="9.57189" fill="#FFFAF5"/>
<path d="M16.9928 24.2975H43.3155C45.0608 24.2975 46.7346 24.9908 47.9688 26.2249C49.2029 27.459 49.8962 29.1329 49.8962 30.8782V50.6202C49.8962 51.0565 49.7229 51.475 49.4143 51.7835C49.1058 52.092 48.6874 52.2653 48.251 52.2653H21.9283C20.183 52.2653 18.5092 51.572 17.2751 50.3379C16.041 49.1038 15.3477 47.43 15.3477 45.6847V25.9427C15.3477 25.5063 15.521 25.0879 15.8295 24.7793C16.138 24.4708 16.5565 24.2975 16.9928 24.2975V24.2975Z" stroke="#FFC27A" stroke-width="1.79473" stroke-linecap="round" stroke-linejoin="round"/>
<path d="M49.8962 34.9911L61.4124 28.4104V48.1524L49.8962 41.5717" stroke="#FFC27A" stroke-width="1.79473" stroke-linecap="round" stroke-linejoin="round"/>
</svg>
