<svg width="31" height="32" viewBox="0 0 31 32" fill="none" xmlns="http://www.w3.org/2000/svg">
<path fill-rule="evenodd" clip-rule="evenodd" d="M3.9676 7.81348C4.36324 7.81348 4.68398 8.13421 4.68398 8.52985V18.0816C4.68398 18.4772 4.36324 18.7979 3.9676 18.7979C3.57196 18.7979 3.25122 18.4772 3.25122 18.0816V8.52985C3.25122 8.13421 3.57196 7.81348 3.9676 7.81348Z" fill="#6D737A"/>
<path fill-rule="evenodd" clip-rule="evenodd" d="M15.4298 22.6205C13.799 22.6205 12.194 23.0274 10.7602 23.8041C9.32641 24.581 8.10905 25.7033 7.21841 27.0693C7.00233 27.4007 6.55848 27.4943 6.22706 27.2782C5.89564 27.062 5.80213 26.6183 6.01822 26.2868C7.03903 24.7211 8.43432 23.4348 10.0778 22.5445C11.7211 21.6541 13.5607 21.1877 15.4298 21.1877C17.2988 21.1877 19.1384 21.6541 20.7818 22.5445C22.4252 23.4348 23.8204 24.7211 24.8413 26.2868C25.0574 26.6183 24.9639 27.062 24.6324 27.2782C24.301 27.4943 23.8572 27.4007 23.6411 27.0693C22.7505 25.7033 21.5331 24.581 20.0993 23.8041C18.6655 23.0274 17.0605 22.6205 15.4298 22.6205Z" fill="#6D737A"/>
<path fill-rule="evenodd" clip-rule="evenodd" d="M15.2031 4.02956C15.3502 3.98054 15.5091 3.98054 15.6562 4.02956L27.1182 7.85024C27.4107 7.94774 27.608 8.22151 27.608 8.52985C27.608 8.8382 27.4107 9.11196 27.1182 9.20947L15.6562 13.0301C15.5091 13.0791 15.3502 13.0791 15.2031 13.0301L3.74106 9.20947C3.44853 9.11196 3.25122 8.8382 3.25122 8.52985C3.25122 8.22151 3.44853 7.94774 3.74106 7.85024L15.2031 4.02956ZM6.23298 8.52985L15.4296 11.5954L24.6263 8.52985L15.4296 5.4643L6.23298 8.52985Z" fill="#6D737A"/>
<path fill-rule="evenodd" clip-rule="evenodd" d="M10.9824 10.1746C11.2742 10.4418 11.2942 10.8949 11.0269 11.1867C10.2446 12.041 9.72778 13.1045 9.53936 14.2475C9.35094 15.3904 9.49913 16.5635 9.96581 17.6236C10.4325 18.6839 11.1976 19.5854 12.1678 20.2184C13.1379 20.8512 14.2713 21.1879 15.4297 21.1879C16.588 21.1879 17.7214 20.8512 18.6916 20.2184C19.6617 19.5854 20.4268 18.6839 20.8935 17.6236C21.3602 16.5635 21.5084 15.3904 21.32 14.2475C21.1316 13.1045 20.6147 12.041 19.8324 11.1867C19.5652 10.8949 19.5851 10.4418 19.8769 10.1746C20.1687 9.90743 20.6219 9.92736 20.889 10.2191C21.8591 11.2784 22.5 12.5971 22.7337 14.0144C22.9673 15.4317 22.7835 16.8862 22.2048 18.2009C21.6261 19.5155 20.6775 20.6335 19.4744 21.4183C18.2714 22.2031 16.8661 22.6206 15.4297 22.6206C13.9933 22.6206 12.5879 22.2031 11.3849 21.4183C10.1819 20.6335 9.23323 19.5155 8.65451 18.2009C8.07579 16.8862 7.89205 15.4317 8.12568 14.0144C8.35931 12.5971 9.00022 11.2784 9.9703 10.2191C10.2375 9.92736 10.6906 9.90743 10.9824 10.1746Z" fill="#6D737A"/>
</svg>
