<svg width="30" height="29" viewBox="0 0 30 29" fill="none" xmlns="http://www.w3.org/2000/svg">
<path d="M23.9863 9.94458H6.03897C5.54337 9.94458 5.1416 10.3463 5.1416 10.8419V23.405C5.1416 23.9007 5.54337 24.3024 6.03897 24.3024H23.9863C24.4819 24.3024 24.8836 23.9007 24.8836 23.405V10.8419C24.8836 10.3463 24.4819 9.94458 23.9863 9.94458Z" stroke="#6D737A" stroke-width="1.79473" stroke-linecap="round" stroke-linejoin="round"/>
<path d="M10.9745 9.94445V5.9063C10.9745 4.83532 11.3999 3.80821 12.1572 3.05091C12.9145 2.29361 13.9416 1.86816 15.0126 1.86816C16.0836 1.86816 17.1107 2.29361 17.868 3.05091C18.6253 3.80821 19.0508 4.83532 19.0508 5.9063V9.94445" stroke="#6D737A" stroke-width="1.79473" stroke-linecap="round" stroke-linejoin="round"/>
<path d="M15.0127 18.4694C15.7561 18.4694 16.3587 17.8668 16.3587 17.1234C16.3587 16.38 15.7561 15.7773 15.0127 15.7773C14.2693 15.7773 13.6666 16.38 13.6666 17.1234C13.6666 17.8668 14.2693 18.4694 15.0127 18.4694Z" fill="#6D737A"/>
</svg>
