<svg width="144" height="38" viewBox="0 0 144 38" fill="none" xmlns="http://www.w3.org/2000/svg">
<path d="M30.2151 4.68191C29.922 6.00101 29.5556 7.36407 29.1159 8.77109C28.6762 10.1781 28.1925 11.4972 27.6649 12.7284L25.8181 12.7284L24.8948 7.53994L16.6724 7.53994L14.386 18.3125L19.7943 18.3125L22.4325 14.9269L23.7955 14.9269C23.649 16.3632 23.3851 17.9608 23.0041 19.7195C22.6523 21.4783 22.2419 23.1199 21.7729 24.6442H20.3659L19.1787 21.1705L13.7704 21.1705L11.3961 32.6027L19.9262 32.6027L23.4438 27.0185L25.2905 27.0185C25.2905 27.5462 25.2612 28.1617 25.2026 28.8652C25.1732 29.5688 25.1146 30.3016 25.0267 31.0637C24.9681 31.8259 24.8801 32.588 24.7629 33.3501C24.6456 34.1123 24.5137 34.8158 24.3671 35.4607L0.579539 35.4607L0.887327 33.7898C1.47359 33.526 2.08916 33.2769 2.73405 33.0424C3.40826 32.8079 4.09711 32.632 4.80063 32.5147L10.077 7.62788C9.49073 7.51063 8.90447 7.34941 8.3182 7.14422C7.73194 6.90971 7.2043 6.64589 6.73529 6.35276L7.08705 4.68191L30.2151 4.68191ZM34.9006 6.04498L31.9107 5.47337V3.9784C32.3211 3.80252 32.878 3.62664 33.5815 3.45076C34.285 3.27489 35.0472 3.11366 35.868 2.9671C36.6887 2.79122 37.5241 2.65931 38.3742 2.57137C39.2536 2.45412 40.0597 2.39549 40.7926 2.39549L41.672 2.87916L35.9119 32.4268L39.0338 32.4268V33.9218C38.7406 34.1563 38.3449 34.3908 37.8466 34.6253C37.3483 34.8598 36.7913 35.065 36.1757 35.2408C35.5895 35.4167 34.9739 35.5633 34.329 35.6805C33.6841 35.7978 33.0686 35.8564 32.4823 35.8564C31.4856 35.8564 30.7528 35.6512 30.2838 35.2408C29.8441 34.8011 29.6243 34.3321 29.6243 33.8338C29.6243 33.2476 29.6682 32.6759 29.7562 32.119C29.8441 31.562 29.9614 30.9465 30.1079 30.2723L34.9006 6.04498ZM42.6757 27.0185C42.6757 25.4356 42.9395 23.8234 43.4672 22.1818C43.9948 20.511 44.8009 19.0014 45.8855 17.653C46.9701 16.2753 48.3331 15.1467 49.9747 14.2673C51.6455 13.3879 53.5948 12.9482 55.8226 12.9482C58.4608 12.9482 60.5274 13.6664 62.0224 15.1027C63.5173 16.5391 64.2648 18.6789 64.2648 21.5223C64.2648 23.457 63.9717 25.3037 63.3854 27.0625C62.7992 28.792 61.9491 30.3309 60.8352 31.6793C59.7213 32.9984 58.3582 34.0537 56.746 34.8451C55.1631 35.6073 53.3457 35.9883 51.2938 35.9883C50.0626 35.9883 48.9194 35.8125 47.8641 35.4607C46.8089 35.0796 45.8855 34.5227 45.094 33.7898C44.3319 33.0277 43.731 32.0897 43.2913 30.9758C42.8809 29.8619 42.6757 28.5428 42.6757 27.0185ZM55.0752 15.4545C53.9026 15.4545 52.9206 15.8942 52.1292 16.7736C51.367 17.653 50.7368 18.7669 50.2385 20.1153C49.7695 21.4344 49.4324 22.8707 49.2272 24.4243C49.022 25.9779 48.9194 27.4142 48.9194 28.7333C48.9194 30.2283 49.1979 31.4008 49.7548 32.2509C50.3411 33.0717 51.1325 33.4821 52.1292 33.4821C52.9793 33.4821 53.7561 33.1303 54.4596 32.4268C55.1924 31.694 55.8226 30.7266 56.3503 29.5248C56.8779 28.2936 57.2883 26.9013 57.5814 25.3477C57.8746 23.7648 58.0211 22.1232 58.0211 20.4231C58.0211 18.8108 57.7573 17.5797 57.2297 16.7296C56.7313 15.8795 56.0132 15.4545 55.0752 15.4545Z" fill="#00A3E0"/>
<path d="M97.2775 4.68191C96.9844 6.00101 96.6179 7.36407 96.1782 8.77109C95.7385 10.1781 95.2549 11.4972 94.7272 12.7284L92.8805 12.7284L91.9572 7.53994L83.7348 7.53994L81.4484 18.3125L86.8567 18.3125L89.4948 14.9269L90.8579 14.9269C90.7113 16.3632 90.4475 17.9608 90.0665 19.7195C89.7147 21.4783 89.3043 23.1199 88.8353 24.6442H87.4283L86.2411 21.1705L80.8328 21.1705L78.4585 32.6027L86.9886 32.6027L90.5062 27.0185L92.3529 27.0185C92.3529 27.5462 92.3236 28.1617 92.2649 28.8652C92.2356 29.5688 92.177 30.3016 92.0891 31.0637C92.0304 31.8259 91.9425 32.588 91.8252 33.3501C91.708 34.1123 91.5761 34.8158 91.4295 35.4607L67.6419 35.4607L67.9497 33.7898C68.536 33.526 69.1515 33.2769 69.7964 33.0424C70.4706 32.8079 71.1595 32.632 71.863 32.5147L77.1394 7.62788C76.5531 7.51063 75.9668 7.34941 75.3806 7.14422C74.7943 6.90971 74.2667 6.64589 73.7977 6.35276L74.1494 4.68191L97.2775 4.68191ZM101.963 6.04498L98.9731 5.47337V3.9784C99.3834 3.80252 99.9404 3.62664 100.644 3.45076C101.347 3.27489 102.11 3.11366 102.93 2.9671C103.751 2.79122 104.587 2.65931 105.437 2.57137C106.316 2.45412 107.122 2.39549 107.855 2.39549L108.734 2.87916L102.974 32.4268L106.096 32.4268V33.9218C105.803 34.1563 105.407 34.3908 104.909 34.6253C104.411 34.8598 103.854 35.065 103.238 35.2408C102.652 35.4167 102.036 35.5633 101.391 35.6805C100.747 35.7978 100.131 35.8564 99.5447 35.8564C98.548 35.8564 97.8152 35.6512 97.3462 35.2408C96.9065 34.8011 96.6866 34.3321 96.6866 33.8338C96.6866 33.2476 96.7306 32.6759 96.8186 32.119C96.9065 31.562 97.0237 30.9465 97.1703 30.2723L101.963 6.04498ZM109.738 27.0185C109.738 25.4356 110.002 23.8234 110.53 22.1818C111.057 20.511 111.863 19.0014 112.948 17.653C114.032 16.2753 115.396 15.1467 117.037 14.2673C118.708 13.3879 120.657 12.9482 122.885 12.9482C125.523 12.9482 127.59 13.6664 129.085 15.1027C130.58 16.5391 131.327 18.6789 131.327 21.5223C131.327 23.457 131.034 25.3037 130.448 27.0625C129.862 28.792 129.011 30.3309 127.898 31.6793C126.784 32.9984 125.421 34.0537 123.808 34.8451C122.225 35.6073 120.408 35.9883 118.356 35.9883C117.125 35.9883 115.982 35.8125 114.927 35.4607C113.871 35.0796 112.948 34.5227 112.156 33.7898C111.394 33.0277 110.793 32.0897 110.354 30.9758C109.943 29.8619 109.738 28.5428 109.738 27.0185ZM122.138 15.4545C120.965 15.4545 119.983 15.8942 119.192 16.7736C118.429 17.653 117.799 18.7669 117.301 20.1153C116.832 21.4344 116.495 22.8707 116.29 24.4243C116.084 25.9779 115.982 27.4142 115.982 28.7333C115.982 30.2283 116.26 31.4008 116.817 32.2509C117.403 33.0717 118.195 33.4821 119.192 33.4821C120.042 33.4821 120.818 33.1303 121.522 32.4268C122.255 31.694 122.885 30.7266 123.413 29.5248C123.94 28.2936 124.351 26.9013 124.644 25.3477C124.937 23.7648 125.083 22.1232 125.083 20.4231C125.083 18.8108 124.82 17.5797 124.292 16.7296C123.794 15.8795 123.076 15.4545 122.138 15.4545Z" fill="#EF3340"/>
</svg>
