<svg width="77" height="78" viewBox="0 0 77 78" fill="none" xmlns="http://www.w3.org/2000/svg">
<rect x="0.0925293" y="0.751221" width="76.5751" height="76.5751" rx="9.57189" fill="#F0F7FF"/>
<path d="M38.3801 49.7323C42.9231 49.7323 46.606 46.0495 46.606 41.5065C46.606 36.9635 42.9231 33.2806 38.3801 33.2806C33.8371 33.2806 30.1543 36.9635 30.1543 41.5065C30.1543 46.0495 33.8371 49.7323 38.3801 49.7323Z" stroke="#0075FD" stroke-width="1.79473" stroke-linecap="round" stroke-linejoin="round"/>
<path d="M52.364 36.5711C54.2801 36.5679 56.1704 37.0124 57.8843 37.8693C59.5981 38.7262 61.0879 39.9718 62.235 41.5066" stroke="#0075FD" stroke-width="1.79473" stroke-linecap="round" stroke-linejoin="round"/>
<path d="M14.5251 41.5066C15.6722 39.9718 17.1621 38.7262 18.8759 37.8693C20.5897 37.0124 22.4801 36.5679 24.3962 36.5711" stroke="#0075FD" stroke-width="1.79473" stroke-linecap="round" stroke-linejoin="round"/>
<path d="M26.5349 57.1355C27.6183 54.9168 29.3031 53.047 31.3973 51.739C33.4915 50.431 35.911 49.7375 38.3801 49.7375C40.8492 49.7375 43.2687 50.431 45.363 51.739C47.4572 53.047 49.1419 54.9168 50.2253 57.1355" stroke="#0075FD" stroke-width="1.79473" stroke-linecap="round" stroke-linejoin="round"/>
<path d="M24.3962 36.571C23.1472 36.5723 21.9236 36.2181 20.8684 35.5498C19.8133 34.8815 18.9701 33.9267 18.4374 32.797C17.9047 31.6673 17.7045 30.4093 17.8602 29.17C18.0159 27.9307 18.521 26.7614 19.3166 25.7985C20.1122 24.8357 21.1654 24.1192 22.3531 23.7327C23.5408 23.3462 24.814 23.3056 26.0239 23.6158C27.2337 23.926 28.3304 24.5742 29.1856 25.4844C30.0408 26.3947 30.6193 27.5296 30.8535 28.7565" stroke="#0075FD" stroke-width="1.79473" stroke-linecap="round" stroke-linejoin="round"/>
<path d="M45.9065 28.7565C46.1407 27.5296 46.7192 26.3947 47.5744 25.4844C48.4296 24.5742 49.5262 23.926 50.7361 23.6158C51.946 23.3056 53.2191 23.3462 54.4069 23.7327C55.5946 24.1192 56.6477 24.8357 57.4433 25.7985C58.2389 26.7614 58.7441 27.9307 58.8998 29.17C59.0555 30.4093 58.8553 31.6673 58.3226 32.797C57.7899 33.9267 56.9467 34.8815 55.8915 35.5498C54.8364 36.2181 53.6128 36.5723 52.3638 36.571" stroke="#0075FD" stroke-width="1.79473" stroke-linecap="round" stroke-linejoin="round"/>
</svg>
