<svg width="44" height="44" viewBox="0 0 44 44" fill="none" xmlns="http://www.w3.org/2000/svg">
<path d="M23.3371 29.529L20.1066 38.2952C20.011 38.5528 19.8388 38.775 19.6133 38.9318C19.3877 39.0887 19.1195 39.1728 18.8447 39.1728C18.5699 39.1728 18.3017 39.0887 18.0762 38.9318C17.8506 38.775 17.6784 38.5528 17.5828 38.2952L14.3523 29.529C14.2841 29.344 14.1766 29.176 14.0372 29.0366C13.8977 28.8971 13.7297 28.7896 13.5447 28.7214L4.77852 25.4909C4.52092 25.3953 4.29875 25.2231 4.14186 24.9975C3.98497 24.772 3.90088 24.5038 3.90088 24.229C3.90088 23.9542 3.98497 23.686 4.14186 23.4604C4.29875 23.2349 4.52092 23.0627 4.77852 22.9671L13.5447 19.7366C13.7297 19.6684 13.8977 19.5609 14.0372 19.4214C14.1766 19.282 14.2841 19.114 14.3523 18.9289L17.5828 10.1628C17.6784 9.9052 17.8506 9.68303 18.0762 9.52614C18.3017 9.36925 18.5699 9.28516 18.8447 9.28516C19.1195 9.28516 19.3877 9.36925 19.6133 9.52614C19.8388 9.68303 20.011 9.9052 20.1066 10.1628L23.3371 18.9289C23.4053 19.114 23.5128 19.282 23.6523 19.4214C23.7917 19.5609 23.9597 19.6684 24.1448 19.7366L32.9109 22.9671C33.1685 23.0627 33.3907 23.2349 33.5476 23.4604C33.7045 23.686 33.7885 23.9542 33.7885 24.229C33.7885 24.5038 33.7045 24.772 33.5476 24.9975C33.3907 25.2231 33.1685 25.3953 32.9109 25.4909L24.1448 28.7214C23.9597 28.7896 23.7917 28.8971 23.6523 29.0366C23.5128 29.176 23.4053 29.344 23.3371 29.529Z" fill="#00A3E0"/>
<path d="M29.613 2.69214V10.7684" stroke="#00A3E0" stroke-width="2.69209" stroke-linecap="round" stroke-linejoin="round"/>
<path d="M33.6512 6.73022H25.575" stroke="#00A3E0" stroke-width="2.69209" stroke-linecap="round" stroke-linejoin="round"/>
<path d="M37.6892 12.1145V17.4987" stroke="#00A3E0" stroke-width="2.69209" stroke-linecap="round" stroke-linejoin="round"/>
<path d="M40.3815 14.8064H34.9973" stroke="#00A3E0" stroke-width="2.69209" stroke-linecap="round" stroke-linejoin="round"/>
</svg>
